# xmcd
#
# Track frame offsets:
# 182
# 13820
# 26875
# 39080
# 51937
# 63862
# 77757
# 90670
# 101235
# 114910
# 128317
# 141040
# 154527
# 168187
#
# Disc length: 2385 seconds
#
#
# Revision: 1
# Processed by: cddbd v1.5.1PL0 Copyright (c) Steve Scherf et al.
# Submitted via: FreeRIP 2.80 
#
DISCID=a3094f0e
DTITLE=Various Artist - Brown Gal
DYEAR=1990
DGENRE=Blues
TTITLE0=R. M. Blues - Roy Milton
TTITLE1=Groovy Blues - Camille Howard
TTITLE2=When I Grow Too Old To Dream - Camille Howard
TTITLE3=Sometime's I'm Happy - Camille Howard
TTITLE4=Mr. Fine - Camille Howard
TTITLE5=If I Had You - Dorothy Donegan
TTITLE6=Milton's Boogie - Roy Milton
TTITLE7=Rock It - Lil Armstrong
TTITLE8=The Piano Player's Blues - Dorothy Donegan
TTITLE9=Brown Gal - Lil Armstrong
TTITLE10=Joogie Boogie - Lil Armstrong
TTITLE11=Baby Daddy - Lil Armstrong
TTITLE12=Baby Daddy 2 - Lil Armstrong
TTITLE13=Rock It 2 - Lil Armstrong
EXTD=Collectables Records Corp. COL-5308
EXTT0=
EXTT1=
EXTT2=
EXTT3=
EXTT4=
EXTT5=
EXTT6=
EXTT7=
EXTT8=
EXTT9=
EXTT10=
EXTT11=
EXTT12=
EXTT13=
PLAYORDER=
